<?xml version="1.0" encoding="UTF-8" standalone="no"?>
<svg
   xmlns:dc="http://purl.org/dc/elements/1.1/"
   xmlns:cc="http://creativecommons.org/ns#"
   xmlns:rdf="http://www.w3.org/1999/02/22-rdf-syntax-ns#"
   xmlns:svg="http://www.w3.org/2000/svg"
   xmlns="http://www.w3.org/2000/svg"
   xmlns:sodipodi="http://sodipodi.sourceforge.net/DTD/sodipodi-0.dtd"
   xmlns:inkscape="http://www.inkscape.org/namespaces/inkscape"
   height="594.16235"
   width="604.96191"
   viewBox="-150 -150 1512.4048 1485.4059"
   version="1.1"
   id="svg20"
   sodipodi:docname="Pywikibot MW gear icon.svg"
   inkscape:version="0.92.3 (2405546, 2018-03-11)">
  <metadata
     id="metadata26">
    <rdf:RDF>
      <cc:Work
         rdf:about="">
        <dc:format>image/svg+xml</dc:format>
        <dc:type
           rdf:resource="http://purl.org/dc/dcmitype/StillImage" />
        <dc:title></dc:title>
      </cc:Work>
    </rdf:RDF>
  </metadata>
  <defs
     id="defs24" />
  <sodipodi:namedview
     pagecolor="#ffffff"
     bordercolor="#666666"
     borderopacity="1"
     objecttolerance="10"
     gridtolerance="10"
     guidetolerance="10"
     inkscape:pageopacity="0"
     inkscape:pageshadow="2"
     inkscape:window-width="1920"
     inkscape:window-height="1051"
     id="namedview22"
     showgrid="false"
     fit-margin-top="0"
     fit-margin-left="0"
     fit-margin-right="0"
     fit-margin-bottom="0"
     inkscape:zoom="1.046633"
     inkscape:cx="325.6948"
     inkscape:cy="337.08776"
     inkscape:window-x="3440"
     inkscape:window-y="0"
     inkscape:window-maximized="1"
     inkscape:current-layer="svg20" />
  <path
     id="path8615"
     d="m 603.35346,175.06174 c -211.90758,0 -198.67468,92.2972 -198.67468,92.2972 l 0.236,95.61894 h 202.21825 v 28.7094 h -282.5386 c 0,0 -135.5995,-15.4454 -135.5995,199.30496 -1e-4,214.7503 118.3543,207.13479 118.3543,207.13479 h 70.63465 v -99.65247 c 0,0 -3.8074,-118.87117 116.46448,-118.87117 120.27183,0 200.56455,0 200.56455,0 0,0 112.68467,1.8295 112.68467,-109.38046 0,-111.20995 0,-183.88259 0,-183.88259 0,0 17.10864,-111.2786 -204.34432,-111.2786 z m -111.50349,64.2996 c 20.11922,0 36.38037,16.3321 36.38037,36.5392 2e-5,20.2071 -16.26115,36.5393 -36.38037,36.5393 -20.11923,0 -36.38039,-16.3322 -36.38039,-36.5393 -1e-5,-20.2071 16.26116,-36.5392 36.38039,-36.5392 z"
     style="color:#000000;display:inline;overflow:visible;visibility:visible;fill:#990000;fill-opacity:1;fill-rule:nonzero;stroke:none;stroke-width:6.47568512;marker:none"
     inkscape:connector-curvature="0" />
  <path
     style="color:#000000;display:inline;overflow:visible;visibility:visible;fill:#339966;fill-opacity:1;fill-rule:nonzero;stroke:none;stroke-width:6.47568512;marker:none"
     d="m 609.37162,1009.0759 c 211.90758,0 198.67465,-92.29712 198.67465,-92.29712 l -0.2359,-95.61893 H 605.59223 v -28.7094 h 282.5385 c 0,0 135.59957,15.44533 135.59957,-199.30503 10e-5,-214.75024 -118.35433,-207.13474 -118.35433,-207.13474 h -70.63462 v 99.65243 c 0,0 3.80744,118.87116 -116.46446,118.87116 -120.27183,0 -200.56456,0 -200.56456,0 0,0 -112.68465,-1.8295 -112.68465,109.38053 0,111.20989 0,183.88255 0,183.88255 0,0 -17.1087,111.27855 204.34432,111.27855 z m 111.50349,-64.29953 c -20.11924,0 -36.38038,-16.33214 -36.38038,-36.53923 0,-20.20709 16.26114,-36.53925 36.38038,-36.53925 20.11924,0 36.38038,16.33216 36.38038,36.53925 7e-5,20.20709 -16.26114,36.53923 -36.38038,36.53923 z"
     id="path8620"
     inkscape:connector-curvature="0" />
  <path
     style="opacity:1;fill:#006699;fill-opacity:1;stroke:#006699;stroke-width:4.21392822;stroke-linecap:round;stroke-linejoin:round;stroke-miterlimit:4;stroke-dasharray:none;stroke-opacity:1"
     d="m 329.58689,-102.03398 5.63239,161.176138 10.49205,-3.193319 A 597.24965,597.24965 0 0 0 196.6658,158.90873 l 2.36329,-3.15295 -152.013986,-61.465178 -72.169758,99.968238 99.253722,127.14318 0.388674,-0.5756 A 597.24965,597.24965 0 0 0 18.524444,486.73116 l 0.134918,-8.58051 -159.065252,39.61862 0.35822,123.27359 155.04088,44.54842 0.172037,-9.66385 a 597.24965,597.24965 0 0 0 55.206488,179.1309 l -6.795651,-9.70032 -105.461485,125.58121 72.744318,99.52218 151.607513,-55.1187 -6.79566,-9.7002 a 597.24965,597.24965 0 0 0 70.95319,63.9413 597.24965,597.24965 0 0 0 78.70474,49.7923 l -9.63095,-3.3087 -11.4694,163.5683 117.37242,37.7146 90.21751,-133.6461 -7.63256,-2.6447 a 597.24965,597.24965 0 0 0 184.51258,2.8375 l -9.88953,3.0017 86.85649,139.0467 117.13177,-38.418 -5.57852,-161.2062 -10.73909,3.2592 a 597.24965,597.24965 0 0 0 155.39208,-109.0293 l -8.4586,11.2095 152.0144,61.4655 72.1695,-99.96811 -99.2534,-127.14314 -5.0162,6.67872 a 597.24965,597.24965 0 0 0 60.5347,-173.89625 l -0.1702,8.38735 159.1189,-39.6487 -0.3582,-123.27351 -155.0408,-44.54848 -0.196,9.74825 A 597.24965,597.24965 0 0 0 1142.033,330.34724 l 6.7954,9.70048 105.4616,-125.58133 -72.7984,-99.49227 -151.5536,55.08858 6.8849,9.86346 A 597.24965,597.24965 0 0 0 965.80931,115.87678 597.24965,597.24965 0 0 0 886.87621,65.927323 L 896.70544,69.3385 908.17531,-94.229631 790.80308,-131.94409 700.53122,1.7315694 708.16369,4.3762681 A 597.24965,597.24965 0 0 0 524.17502,1.4609791 L 533.62514,-1.4382413 446.7386,-140.53958 Z m 52.21256,307.09743 A 447.93723,447.93723 0 0 1 875.86886,235.05659 447.93723,447.93723 0 0 1 963.84369,862.4105 447.93723,447.93723 0 0 1 336.48996,950.38509 447.93723,447.93723 0 0 1 248.5692,323.00135 447.93723,447.93723 0 0 1 381.79945,205.06345 Z"
     id="path4140"
     inkscape:connector-curvature="0" />
</svg>
